<svg xmlns="http://www.w3.org/2000/svg" xmlns:xlink="http://www.w3.org/1999/xlink" xmlns:serif="http://www.serif.com/" viewBox="0 0 24 30" version="1.1" xml:space="preserve" style="" x="0px" y="0px" fill-rule="evenodd" clip-rule="evenodd" stroke-linejoin="round" stroke-miterlimit="2"><g><path d="M3.847,9.82c-1.471,0.311 -2.576,1.617 -2.576,3.18c-0,1.563 1.105,2.869 2.576,3.18c1.273,3.258 4.445,5.57 8.153,5.57c3.706,0 6.877,-2.309 8.152,-5.566c1.481,-0.301 2.598,-1.613 2.598,-3.184c0,-1.571 -1.117,-2.882 -2.599,-3.185c-1.274,-3.256 -4.445,-5.565 -8.151,-5.565c-3.708,0 -6.88,2.312 -8.153,5.57Zm0.587,1.432c0.311,-0.015 0.58,-0.22 0.677,-0.515c0.951,-2.894 3.677,-4.987 6.889,-4.987c3.211,0 5.938,2.092 6.889,4.986c0.098,0.298 0.37,0.503 0.683,0.515c0.932,0.038 1.678,0.807 1.678,1.749c0,0.942 -0.746,1.711 -1.678,1.749c-0.313,0.012 -0.585,0.217 -0.683,0.515c-0.951,2.894 -3.678,4.986 -6.889,4.986c-3.212,-0 -5.938,-2.093 -6.889,-4.987c-0.097,-0.295 -0.366,-0.5 -0.677,-0.515c-0.926,-0.045 -1.663,-0.811 -1.663,-1.748c-0,-0.937 0.737,-1.703 1.663,-1.748Z"/><path d="M13.696,5.664c0.035,0.159 0.054,0.324 0.054,0.494c0,1.242 -1.008,2.25 -2.25,2.25c-0.409,-0 -0.793,-0.109 -1.124,-0.301c-0.358,-0.207 -0.818,-0.085 -1.025,0.273c-0.207,0.359 -0.085,0.818 0.273,1.025c0.552,0.32 1.193,0.503 1.876,0.503c2.07,-0 3.75,-1.68 3.75,-3.75c0,-0.282 -0.031,-0.557 -0.091,-0.822c-0.09,-0.404 -0.492,-0.658 -0.896,-0.568c-0.403,0.091 -0.658,0.492 -0.567,0.896Z"/><path d="M14.76,13.124c0.06,-0.354 0.369,-0.624 0.74,-0.624c0.371,0 0.68,0.27 0.74,0.624c0.068,0.409 0.455,0.684 0.864,0.616c0.408,-0.069 0.683,-0.456 0.615,-0.864c-0.179,-1.064 -1.105,-1.876 -2.219,-1.876c-1.114,0 -2.04,0.812 -2.219,1.876c-0.068,0.408 0.207,0.795 0.615,0.864c0.409,0.068 0.796,-0.207 0.864,-0.616Z"/><path d="M8.753,16.876c0.648,1.12 1.86,1.874 3.247,1.874c1.387,-0 2.599,-0.754 3.247,-1.874c0.208,-0.358 0.085,-0.818 -0.273,-1.025c-0.358,-0.207 -0.818,-0.085 -1.025,0.273c-0.389,0.673 -1.117,1.126 -1.949,1.126c-0.832,-0 -1.56,-0.453 -1.949,-1.126c-0.207,-0.358 -0.667,-0.48 -1.025,-0.273c-0.358,0.207 -0.481,0.667 -0.273,1.025Z"/><path d="M7.76,13.124c0.06,-0.354 0.369,-0.624 0.74,-0.624c0.371,0 0.68,0.27 0.74,0.624c0.068,0.409 0.455,0.684 0.864,0.616c0.408,-0.069 0.683,-0.456 0.615,-0.864c-0.179,-1.064 -1.105,-1.876 -2.219,-1.876c-1.114,0 -2.04,0.812 -2.219,1.876c-0.068,0.408 0.207,0.795 0.615,0.864c0.409,0.068 0.796,-0.207 0.864,-0.616Z"/><path d="M10,4.5c-1.172,0 -2.174,-0.735 -2.569,-1.768c-0.148,-0.387 -0.582,-0.58 -0.969,-0.432c-0.387,0.148 -0.58,0.582 -0.432,0.968c0.611,1.597 2.159,2.732 3.97,2.732c0.414,-0 0.75,-0.336 0.75,-0.75c0,-0.414 -0.336,-0.75 -0.75,-0.75Z"/><path d="M12.29,4.304c-0.71,-0.285 -1.275,-0.857 -1.548,-1.572c-0.148,-0.387 -0.583,-0.58 -0.969,-0.432c-0.387,0.148 -0.58,0.582 -0.432,0.968c0.423,1.105 1.294,1.988 2.39,2.428c0.384,0.154 0.821,-0.033 0.976,-0.417c0.154,-0.384 -0.033,-0.821 -0.417,-0.975Z"/></g><text x="0" y="39" fill="#000000" font-size="5px" font-weight="bold" font-family="'Helvetica Neue', Helvetica, Arial-Unicode, Arial, Sans-serif">Created by Rolas Design</text><text x="0" y="44" fill="#000000" font-size="5px" font-weight="bold" font-family="'Helvetica Neue', Helvetica, Arial-Unicode, Arial, Sans-serif">from the Noun Project</text></svg>