<svg xmlns="http://www.w3.org/2000/svg" version="1.1" viewBox="-5.0 -10.0 110.0 135.0">
 <path d="m4.6016 40.5c-0.69922-0.5-0.80078-1.3984-0.30078-2 5.6992-6.8984 11.199-12.5 16.5-16.898 5.3984-4.3984 10.5-7.6016 15.398-9.6016 1-0.39844 2 0.39844 1.8984 1.3984-0.10156 4.3984 1.1016 8.6016 3.1992 12.199 2 3.3984 5 6.3984 8.6016 8.3984 3.6016-2 6.6016-4.8984 8.6016-8.3984 2.1992-3.6016 3.3008-7.8984 3.1992-12.301 0-1 1-1.6992 2-1.3008 4.8984 2 10.102 5.1016 15.398 9.6016 5.3008 4.3984 10.801 10 16.5 16.801 0.5 0.60156 0.39844 1.6016-0.30078 2l-14.797 11.203c-0.60156 0.39844-1.3008 0.39844-1.8008-0.10156l-2.5-2.1992c-0.10156 4.3008-0.10156 8.6992-0.10156 13.102 0 8.1992 0.10156 16.199 0.30078 24 0.10156 0.80078-0.5 1.5-1.3984 1.5l-50-0.003906c-0.80078 0-1.5-0.69922-1.3984-1.5 0.19922-7.8984 0.30078-15.898 0.30078-24 0-4.3984 0-8.8008-0.10156-13.102l-2.5 2.1992c-0.5 0.5-1.1992 0.5-1.8008 0.10156zm45.398 8.8008c-1.3008 0-2.3984 1.1016-2.3984 2.3984 0 1.3008 1.1016 2.3984 2.3984 2.3984 1.3008 0 2.3984-1.1016 2.3984-2.3984 0-1.3008-1.0977-2.3984-2.3984-2.3984zm0-8c-1.3008 0-2.3984 1.1016-2.3984 2.3984 0 1.3008 1.1016 2.3984 2.3984 2.3984 1.3008 0 2.3984-1.1016 2.3984-2.3984 0-1.3008-1.0977-2.3984-2.3984-2.3984zm0.60156-4.5c-0.39844 0.19922-0.89844 0.19922-1.3008 0-4.3008-2.3008-7.9023-5.6992-10.301-9.8008-2.1016-3.5-3.3008-7.5-3.6016-11.602-4.1016 1.8984-8.3984 4.6992-12.801 8.3008-4.8984 4-10 9.1992-15.199 15.301l12.898 9.6992 3.3984-3c0-2.5-0.10156-4.8984-0.19922-7.3984 0-1.8008 2.6992-1.8984 2.8008-0.10156 0.19922 8.1992 0.30078 16.301 0.30078 24.199 0 7.5-0.10156 15.102-0.30078 22.801h47.199c-0.19922-7.6992-0.30078-15.301-0.30078-22.801 0-7.8984 0.10156-16 0.30078-24.199 0-1.8008 2.8008-1.8008 2.8008 0.10156-0.10156 2.3984-0.10156 4.8984-0.19922 7.3984l3.3984 3 12.898-9.6992c-5.3008-6.1992-10.398-11.301-15.199-15.301-4.5-3.6992-8.6992-6.5-12.801-8.3008-0.19922 4.1992-1.5 8.1992-3.6016 11.699-2.1914 4.0039-5.793 7.4023-10.191 9.7031z" fill-rule="evenodd"/>
<text x="0.0" y="117.5" font-size="5.0" font-weight="bold" font-family="Arbeit Regular, Helvetica, Arial-Unicode, Arial, Sans-serif" fill="#000000">Created by m zainur rifqi</text><text x="0.0" y="122.5" font-size="5.0" font-weight="bold" font-family="Arbeit Regular, Helvetica, Arial-Unicode, Arial, Sans-serif" fill="#000000">from Noun Project</text></svg>