<svg xmlns="http://www.w3.org/2000/svg" xmlns:xlink="http://www.w3.org/1999/xlink" version="1.1" x="0px" y="0px" viewBox="0 0 100 125" style="enable-background:new 0 0 100 100;" xml:space="preserve"><path d="M89.57,92.05c0.84,1.38-1.03,2.61-2.01,1.61c0,0-2.75-2.77-2.75-2.77c0.72-1.07,1.39-2.25,1.96-3.41L89.57,92.05z   M13.95,88.93c-0.26-0.49-0.47-0.97-0.72-1.45l-2.81,4.59c-0.12,0.2-0.19,0.44-0.19,0.67c0,1.25,1.49,1.64,2.2,0.93l2.76-2.77  C14.77,90.26,14.31,89.61,13.95,88.93z M37.68,73.51H20.89c-2.27-0.05-4.18,2.15-3.78,4.41c0,0,0.76,5.02,0.76,5.02  c0.74,4.86,4.84,8.4,9.76,8.4h4.41c4.65,0,8.61-3.17,9.64-7.71l0.89-3.98C43.36,76.61,40.8,73.43,37.68,73.51z M84.9,86.11  c-1.84,5.16-7.06,8.78-12.54,8.72c0,0-4.41,0-4.41,0c-6.3,0-11.66-4.28-13.05-10.42c0,0-0.34-1.57-0.64-3.02  c-0.41-2-2.21-3.46-4.29-3.46c-2.05,0-3.82,1.45-4.24,3.46c-0.3,1.45-0.64,3.01-0.64,3.01c-1.39,6.15-6.76,10.43-13.05,10.43h-4.41  c-6.05,0.08-11.68-4.35-13.01-10.28c-0.22-0.73-0.85-5.52-1.01-6.35c-0.02-0.12-0.06-0.23-0.11-0.35l-2.96-5.74v-2.1  c1.52,0.23,29.74-0.57,30.33,0.54c1.38,0.64,2.54,1.52,3.44,2.65c0.23,0.3,0.63,0.46,1.01,0.41c3.13-0.41,6.17-0.4,9.3,0.02  c0.39,0.06,0.78-0.1,1.03-0.41c1.47-1.79,3.64-3.24,6.11-3.21c0,0,27.68,0,27.68,0v2.1l-2.96,5.74  C85.96,79.88,85.73,84.2,84.9,86.11z M43.35,74c-1.39-1.73-3.46-2.73-5.67-2.73H20.89c-3.6-0.09-6.62,3.43-5.99,6.98  c0,0,0.76,5.02,0.76,5.02c0.91,5.97,5.95,10.3,11.98,10.3h4.41c5.7,0,10.57-3.88,11.82-9.45l0.89-3.98  C45.25,77.97,44.74,75.73,43.35,74z M84.34,83.27l0.76-5.02c0.63-3.54-2.39-7.06-5.99-6.98c0,0-16.79,0-16.79,0  c-4.51-0.12-8.2,4.48-7.08,8.87c0,0,0.89,3.98,0.89,3.98c1.26,5.57,6.12,9.45,11.82,9.45h4.41C78.39,93.57,83.43,89.24,84.34,83.27z   M79.1,73.51H62.32c-3.13-0.08-5.67,3.1-4.9,6.14c0,0,0.89,3.98,0.89,3.98c1.03,4.54,4.99,7.71,9.64,7.71h4.41  c4.92,0,9.03-3.53,9.76-8.4l0.77-5.02C83.29,75.67,81.38,73.46,79.1,73.51z M99,52.12c-1.36-3.68-5.56-5.32-9.26-5.99  c-19.62-5.08-39.79-7.2-59.93-4.09c-7.93,1.17-16.05,2.4-23.59,5.2c-4.22,1.57-6.97,5.97-5.2,9.98c1.66,3.52,6.2,5.07,10.33,3.52  c14.29-3.81,26.49-5.71,38.67-5.71c12.16,0,24.3,1.9,38.52,5.69C94.74,63.15,101.48,58.27,99,52.12z M52.59,28.81h-5.18  c-5.78-0.01-10.15,4.51-10.76,10.12c8.97-0.89,17.73-0.89,26.71,0C62.71,33.3,58.42,28.81,52.59,28.81z M25.17,40.53  c0.95-0.17,9.07-0.98,9.15-1.34l0.48-2.35c1.23-5.95,6.53-10.27,12.62-10.27h5.18c6.08,0,11.38,4.32,12.62,10.27  c0.11,0.51,0.1,1.5,0.4,1.92c0.56,0.79,2,0.65,3.03,0.79c2.84,0.39,5.66,0.86,8.48,1.4c1.87,0.36,3.75,0.74,5.6,1.16  c0.43,0.1,4.57,0.75,4.65,1.1l-3.23-15.52C81.42,14.64,69.78,5.16,56.45,5.16H43.55c-13.33,0-24.97,9.47-27.68,22.52l-3.23,15.52  C16.79,42.21,20.96,41.27,25.17,40.53z"/><text x="0" y="115" fill="#000000" font-size="5px" font-weight="bold" font-family="'Helvetica Neue', Helvetica, Arial-Unicode, Arial, Sans-serif">Created by mangunkarsa</text><text x="0" y="120" fill="#000000" font-size="5px" font-weight="bold" font-family="'Helvetica Neue', Helvetica, Arial-Unicode, Arial, Sans-serif">from the Noun Project</text></svg>