<svg xmlns="http://www.w3.org/2000/svg" version="1.1" viewBox="-5.0 -10.0 110.0 135.0">
 <path d="m7 12.789h69.75v4h-67.75v5.6914h81.996v-5.6914h-2.707v-4h4.7109c1.1055 0 2 0.89453 2 2v9.6953c0 1.1055-0.89453 2-2 2h-4.7227v46.789c0 1.1055-0.89453 2-2 2h-5.2188v7.7773c0 1.1406-0.46875 2.1797-1.2227 2.9336-0.76172 0.75781-1.8008 1.2266-2.9414 1.2266h-4.9258c-1.1367 0-2.1758-0.46875-2.9336-1.2227l-0.007812-0.007812c-0.75-0.75391-1.2188-1.793-1.2188-2.9297v-7.7773h-35.617v7.7773c0 1.1406-0.46875 2.1797-1.2227 2.9336-0.75391 0.75781-1.7969 1.2266-2.9414 1.2266h-4.9258c-1.1406 0-2.1797-0.46875-2.9336-1.2227-0.75781-0.76172-1.2266-1.8008-1.2266-2.9414v-7.7773h-5.2188c-1.1055 0-2-0.89453-2-2v-46.789h-4.7227c-1.1055 0-2-0.89453-2-2v-9.6953c0-1.1055 0.89453-2 2-2zm73.754 0h3.5352v4h-3.5352zm-30.754 43.34c1.3633 0 2.5977 0.55469 3.4922 1.4492l0.125 0.13672c0.82031 0.88281 1.3242 2.0664 1.3242 3.3594 0 1.3555-0.55859 2.5938-1.4531 3.4883-0.89062 0.89844-2.125 1.4531-3.4883 1.4531-1.3594 0-2.5938-0.55469-3.4883-1.4492-0.89844-0.90234-1.457-2.1367-1.457-3.4961 0-1.3633 0.55469-2.6016 1.4492-3.4922 0.89453-0.89453 2.1328-1.4492 3.4961-1.4492zm0.66797 4.2773c-0.16797-0.16797-0.40625-0.27344-0.66797-0.27344s-0.5 0.10547-0.66797 0.27344-0.27344 0.40625-0.27344 0.66797 0.10547 0.50391 0.26953 0.67188c0.16797 0.16406 0.40625 0.26953 0.67188 0.26953 0.26172 0 0.49609-0.10547 0.66797-0.27344 0.17188-0.16406 0.27344-0.40234 0.27344-0.66797 0-0.23828-0.082031-0.45312-0.21875-0.60938l-0.058594-0.054688zm-0.66797-28.84c1.3633 0 2.5977 0.55469 3.4922 1.4492 0.89453 0.89453 1.4492 2.1289 1.4492 3.4922 0 1.3555-0.55469 2.5938-1.4531 3.4883-0.89062 0.89844-2.125 1.4531-3.4883 1.4531s-2.6016-0.55469-3.4961-1.4492c-0.89453-0.89453-1.4492-2.1289-1.4492-3.4922 0-1.3633 0.55469-2.5977 1.4492-3.4922l0.13672-0.125c0.88281-0.82031 2.0664-1.3242 3.3594-1.3242zm0.66797 4.2773c-0.16797-0.16797-0.40625-0.27344-0.66797-0.27344-0.23438 0-0.44922 0.082032-0.60938 0.21484l-0.058594 0.058594c-0.16797 0.16797-0.27344 0.40625-0.27344 0.66797s0.10547 0.5 0.27344 0.66797c0.16797 0.16797 0.40625 0.27344 0.66797 0.27344s0.49609-0.10547 0.66797-0.27344c0.17188-0.16406 0.27344-0.40234 0.27344-0.66797 0-0.26172-0.10547-0.49609-0.27344-0.66797zm26.391 39.426h-5.2461v7.7773c0 0.046875 0.015625 0.085937 0.042969 0.11328 0.03125 0.03125 0.070312 0.046875 0.12109 0.046875h4.9258c0.042968 0 0.089844-0.019531 0.11719-0.042969 0.027344-0.027343 0.042969-0.070312 0.042969-0.11719v-7.7773zm-48.867 0h-5.2461v7.7773c0 0.042969 0.019532 0.089844 0.042969 0.11719 0.027344 0.027344 0.070313 0.042969 0.11719 0.042969h4.9258c0.042969 0 0.082031-0.019531 0.11328-0.046875 0.03125-0.023437 0.046875-0.070312 0.046875-0.11328zm56.086-24.395h-68.551v20.391h68.551zm0-24.395h-68.551v20.391h68.551z"/>
<text x="0.0" y="117.5" font-size="5.0" font-weight="bold" font-family="Arbeit Regular, Helvetica, Arial-Unicode, Arial, Sans-serif" fill="#000000">Created by Suhatidja</text><text x="0.0" y="122.5" font-size="5.0" font-weight="bold" font-family="Arbeit Regular, Helvetica, Arial-Unicode, Arial, Sans-serif" fill="#000000">from Noun Project</text></svg>