<svg xmlns="http://www.w3.org/2000/svg" version="1.1" viewBox="-5.0 -10.0 110.0 135.0">
 <g>
  <path d="m50.309 73.516h-8.1406c0 0.33203 0.011719 0.64844 0.16016 0.95312l3.9102 7.9336 3.9102-7.9336c0.14844-0.30469 0.16016-0.62109 0.16016-0.95312z"/>
  <path d="m50.309 26.418v43.973h-8.1406v-43.973z"/>
  <path d="m50.309 20.477v2.8164h-8.1406v-2.8164c0-2.25 1.8242-4.0703 4.0703-4.0703 2.2461 0 4.0703 1.8203 4.0703 4.0703z"/>
  <path d="m24.441 82.051 2.6523-1.6953c2.0273-1.3008 3.2539-3.5391 3.2539-5.9453 0-2.3125-1.875-4.1836-4.1836-4.1836h-1.3164c-1.6406 0-2.9727 1.3281-2.9727 2.9727 0 1.1602 0.38672 2.293 1.1016 3.2109l0.67969 0.875c0.75781 0.98047 1.1016 2.2188 0.94922 3.4492z"/>
  <path d="m26.133 16.543c-2.3086 0-4.168 1.9062-4.1094 4.2188l1.1992 46.223h5.7188l1.3008-46.215c0.066406-2.3125-1.793-4.2266-4.1094-4.2266z"/>
  <path d="m74.121 33.594h1.6602v14.844c0 1.7266 1.3984 3.125 3.125 3.125s3.125-1.3984 3.125-3.125v-16.406c0-2.5898-2.0977-4.6875-4.6875-4.6875h-3.2227z"/>
  <path d="m62.461 76.242v-7.207h8.5352v7.207c0 0.30469-0.089844 0.60547-0.26172 0.86328l-4.0039 6.0391-4.0078-6.0391c-0.16797-0.25781-0.26172-0.55859-0.26172-0.86328z"/>
  <path d="m70.934 65.91h-8.4727v-38.566h8.4727z"/>
  <path d="m70.996 24.219h-8.5352v-6.25c0-0.86328 0.69922-1.5625 1.5625-1.5625h5.4102c0.86328 0 1.5625 0.69922 1.5625 1.5625z"/>
 </g>
<text x="0.0" y="117.5" font-size="5.0" font-weight="bold" font-family="Arbeit Regular, Helvetica, Arial-Unicode, Arial, Sans-serif" fill="#000000">Created by Marz Gallery</text><text x="0.0" y="122.5" font-size="5.0" font-weight="bold" font-family="Arbeit Regular, Helvetica, Arial-Unicode, Arial, Sans-serif" fill="#000000">from Noun Project</text></svg>