<svg xmlns="http://www.w3.org/2000/svg" version="1.1" viewBox="-5.0 -10.0 110.0 135.0">
 <path d="m80.363 38.109c-0.10938-1.8984-1.7461-3.4453-3.6484-3.4453h-10.141l0.24609-8.4688c0-9.2734-7.5469-16.82-16.82-16.82-4.4922 0-8.7148 1.7539-11.891 4.9414-3.1797 3.1875-4.9297 7.4336-4.9297 11.984l0.24609 8.3633h-10.137c-1.9023 0-3.5391 1.5469-3.6484 3.4414l-2.8594 48.938c-0.054688 0.94922 0.26953 1.8438 0.91016 2.5234 0.64062 0.67969 1.5195 1.0547 2.4688 1.0547h59.688c0.94922 0 1.8242-0.375 2.4688-1.0547 0.64062-0.67969 0.96484-1.5781 0.91016-2.5273zm-40.594-22.137c2.7344-2.7422 6.3672-4.2539 10.23-4.2539 7.9844 0 14.477 6.4961 14.477 14.441l-0.28125 9.6641v0.011719 0.007812l-0.20703 7.0195c-0.019531 0.63672-0.53516 1.1367-1.1719 1.1367v1.1719l-0.035156-1.1719c-0.3125-0.007812-0.60156-0.14062-0.81641-0.36719-0.21484-0.22656-0.32812-0.52734-0.32031-0.83984l0.20312-6.957 0.28516-9.707c0-6.6523-5.4453-12.062-12.133-12.062-6.6914 0-12.133 5.4414-12.133 12.168l0.48828 16.562c0.007812 0.3125-0.10547 0.60938-0.32031 0.83984-0.21484 0.22656-0.50391 0.35938-0.85938 0.36719-0.61328 0-1.1484-0.51953-1.1641-1.1367l-0.20703-7.0195v-0.003906-0.011719l-0.28125-9.5586c0-3.8984 1.5078-7.5547 4.2461-10.301zm0.44141 10.223c0-5.3984 4.3906-9.7891 9.7891-9.7891s9.7891 4.3594 9.793 9.6875l-0.25 8.5703h-19.082zm40.395 61.766c-0.19531 0.20703-0.46484 0.32031-0.76172 0.32031h-59.688c-0.29688 0-0.57031-0.11328-0.76172-0.32031-0.19531-0.20703-0.29297-0.48438-0.27734-0.78125l2.8594-48.938c0.039063-0.66797 0.64063-1.2344 1.3125-1.2344h10.207l0.17578 5.9219c0.054687 1.8828 1.6289 3.4141 3.5078 3.4141 0.011718 0 0.097656 0 0.10937-0.003906 0.9375-0.027344 1.8125-0.41797 2.457-1.1016 0.64453-0.68359 0.98438-1.5781 0.95703-2.5156l-0.16797-5.7148h18.941l-0.16797 5.7148c-0.027344 0.9375 0.3125 1.832 0.95703 2.5156 0.64453 0.68359 1.5156 1.0742 2.4531 1.1016 0.011719 0 0.09375 0.003906 0.10547 0.003906 1.9141 0 3.457-1.5 3.5117-3.4141l0.17578-5.9219h10.207c0.67188 0 1.2734 0.56641 1.3125 1.2383l2.8594 48.934c0.007813 0.29687-0.089844 0.57422-0.28516 0.78125z"/>
<text x="0.0" y="117.5" font-size="5.0" font-weight="bold" font-family="Arbeit Regular, Helvetica, Arial-Unicode, Arial, Sans-serif" fill="#000000">Created by Uciha iconic</text><text x="0.0" y="122.5" font-size="5.0" font-weight="bold" font-family="Arbeit Regular, Helvetica, Arial-Unicode, Arial, Sans-serif" fill="#000000">from Noun Project</text></svg>